<svg t="1621651272419" class="icon" viewBox="0 0 1024 1024" version="1.1" xmlns="http://www.w3.org/2000/svg" p-id="6234" width="128" height="128"><path d="M355.754667 85.333333c14.72-0.64 29.994667 13.056 30.122666 29.44a24.064 24.064 0 0 0 23.978667 23.808h43.349333a113.28 113.28 0 0 1 112.853334 111.616v10.24h121.514666c135.808-1.109333 245.12 99.712 250.88 230.997334 0.213333 5.12 0.213333 10.453333 0.128 15.701333v183.893333c2.944 132.608-103.082667 243.370667-236.288 246.314667a242.346667 242.346667 0 0 1-15.786666-0.213333 10169.173333 10169.173333 0 0 1-350.72 0c-131.413333 5.632-244.352-97.792-250.197334-230.869334a244.48 244.48 0 0 1-0.170666-15.829333V506.453333a239.445333 239.445333 0 0 1 67.072-171.690666 239.658667 239.658667 0 0 1 185.301333-74.282667l168.746667-0.042667v-9.856a53.589333 53.589333 0 0 0-53.546667-52.48H409.6a83.669333 83.669333 0 0 1-83.285333-82.645333 29.781333 29.781333 0 0 1 29.44-30.08z m-28.629334 234.410667h-3.968a180.693333 180.693333 0 0 0-127.658666 56.192 180.565333 180.565333 0 0 0-50.56 129.92v185.173333c-0.085333 4.608-0.085333 8.618667 0.128 12.544 4.352 100.394667 88.746667 178.901333 189.866666 174.08 116.053333 1.962667 233.898667 1.962667 352.298667-0.042666a182.186667 182.186667 0 0 0 191.872-185.898667V506.453333a194.730667 194.730667 0 0 0-0.128-12.416c-4.309333-99.754667-84.906667-174.165333-187.946667-174.165333l-3.242666 0.085333H336.341333a205.781333 205.781333 0 0 0-13.141333-0.170666z m60.288 174.549333c15.914667 0 29.013333 11.648 31.146667 26.709334l0.256 4.181333v43.349333h44.117333a31.146667 31.146667 0 0 1 31.402667 30.933334c0 15.616-11.818667 28.544-27.136 30.592l-4.266667 0.256H418.773333l0.042667 43.392c0 17.066667-14.08 30.890667-31.402667 30.890666a31.232 31.232 0 0 1-31.146666-26.709333l-0.256-4.181333v-43.392H311.893333a31.146667 31.146667 0 0 1-31.445333-30.848c0-15.658667 11.818667-28.586667 27.178667-30.634667l4.266666-0.256h44.074667v-43.392c0-17.066667 14.08-30.890667 31.445333-30.890667z m329.301334 146.261334a31.146667 31.146667 0 0 1 31.402666 30.890666c0 15.616-11.818667 28.586667-27.136 30.592l-4.266666 0.298667H712.533333a31.146667 31.146667 0 0 1-31.402666-30.890667c0-15.658667 11.818667-28.586667 27.136-30.592l4.266666-0.298666h4.266667z m-71.68-141.738667a31.146667 31.146667 0 0 1 31.402666 30.890667c0 15.658667-11.818667 28.586667-27.136 30.592l-4.266666 0.298666h-4.224a31.146667 31.146667 0 0 1-31.402667-30.890666c0-15.616 11.818667-28.586667 27.136-30.592l4.266667-0.298667h4.224z" fill="#ffffff" p-id="6235"></path></svg>